# xmcd
#
# Track frame offsets: 
#        150
#        24298
#        44863
#        78376
#        96771
#        125569
#        144346
#        164520
#        191447
#        220329
#
# Disc length: 3231 seconds
#
# Revision: 2
# Processed by: cddbd v1.5.2PL0 Copyright (c) Steve Scherf et al.
# Submitted via: ExactAudioCopyFreeDBPlugin 1.0
#
DISCID=8a0c9d0a
DTITLE=Various Artist - Uncut Detroit: Live Blues In The Night
DYEAR=1997
DGENRE=Blues
TTITLE0=Lazy Lester - Sugar Coated Love
TTITLE1=Bluecat - Delta Bound
TTITLE2=Johnnie Bassett And The Blues Insurgents - If The Shoe Was On 
TTITLE2=The Other Foot
TTITLE3=Lady Sunshine And The X Band - Thang For You
TTITLE4=Mudpuppy - Use Me
TTITLE5=Hastings Street Blues Band - Get Off My Back
TTITLE6=Nikki James And The Flamethrowers - Beer Bottle Boogie
TTITLE7=Johnny 'Yard Dog' Jones - Who's Gonna Be Your Sweet Man When I
TTITLE7='m Gone
TTITLE8=Motor City Josh - Someone Else Is Getting That Good Thing
TTITLE9=Chisel Bros. With Mimi Harris - I Can Stand A Little Pain
EXTD=Recorded live ath the Pagoda Room, May 22 1997
EXTT0=Lazy Lester with Doug Deming ant the Blue Suit Band
EXTT1=Bluecat\n
EXTT2=Johnny Bassett and the Blues Insurgents
EXTT3=Lady Sunshine and the X Band
EXTT4=Mudpuppy
EXTT5=Hastings Street Blues Band
EXTT6=Nikki James and the Flamethrowers
EXTT7=Johnny Yard Dog Jones with the Blue Suit Band
EXTT8=Motor City Josh and the Big Three
EXTT9=Chisel Bros. with Mirra Harris
PLAYORDER=
